<svg xmlns="http://www.w3.org/2000/svg" height="30" fill="#2ECC71" viewBox="0 96 960 960" width="40"><path d="m421.744 745.076 269.332-269.332-37.281-36.871-232.051 232.308-116.975-116.975-36.614 36.871 153.589 153.999Zm58.323 210.923q-78.426 0-147.666-29.92t-120.887-81.544q-51.647-51.624-81.58-120.833-29.933-69.21-29.933-147.635 0-78.836 29.92-148.204 29.92-69.369 81.544-120.682 51.624-51.314 120.833-81.247 69.21-29.933 147.635-29.933 78.836 0 148.204 29.92 69.369 29.92 120.682 81.21 51.314 51.291 81.247 120.629 29.933 69.337 29.933 148.173 0 78.426-29.92 147.666t-81.21 120.887q-51.291 51.647-120.629 81.58-69.337 29.933-148.173 29.933Z"/></svg>