<svg xmlns="http://www.w3.org/2000/svg" height="30" fill="#F39C12" viewBox="0 96 960 960" width="40"><path d="M482.535 797.23q14.567 0 24.683-10.265 10.115-10.266 10.115-24.833 0-14.312-10.137-24.555t-24.705-10.243q-14.567 0-24.811 10.265-10.243 10.265-10.243 24.576 0 14.568 10.265 24.811 10.265 10.244 24.833 10.244Zm-27.919-139.435h49.127q.513-26.154 7.987-45.09 7.475-18.936 37.449-45.525 28.692-26.385 41.782-49.474 13.089-23.09 13.089-52.036 0-50.156-33.935-80.143-33.935-29.987-85.038-29.987-46.282 0-80.038 24.089-33.756 24.09-49.243 60.73L400.82 458q10.026-24.539 29.949-40.782 19.923-16.244 52.051-16.244 36.283 0 55.68 19.834 19.398 19.833 19.398 47.193 0 21.205-12.026 39.205-12.025 18-33.41 36.487-32.615 29.179-45.23 53.102-12.616 23.923-12.616 61Zm25.451 298.204q-78.426 0-147.666-29.92t-120.887-81.544q-51.647-51.624-81.58-120.833-29.933-69.21-29.933-147.635 0-78.836 29.92-148.204 29.92-69.369 81.544-120.682 51.624-51.314 120.833-81.247 69.21-29.933 147.635-29.933 78.836 0 148.204 29.92 69.369 29.92 120.682 81.21 51.314 51.291 81.247 120.629 29.933 69.337 29.933 148.173 0 78.426-29.92 147.666t-81.21 120.887q-51.291 51.647-120.629 81.58-69.337 29.933-148.173 29.933Z"/></svg>